<svg width="20" height="20" viewBox="0 0 50 50" fill="none" xmlns="http://www.w3.org/2000/svg">
<path d="M39.48 6.38293H31.2058C28.9209 6.38293 27.0686 8.23518 27.0686 10.5201V18.7943C27.0686 21.0791 28.9209 22.9314 31.2058 22.9314H39.48C41.7649 22.9314 43.6171 21.0791 43.6171 18.7943V10.5201C43.6171 8.23518 41.7649 6.38293 39.48 6.38293Z" stroke="black" stroke-width="2.06856"/>
<path d="M18.7944 6.38293H10.5202C8.23531 6.38293 6.38306 8.23518 6.38306 10.5201V18.7943C6.38306 21.0791 8.23531 22.9314 10.5202 22.9314H18.7944C21.0793 22.9314 22.9315 21.0791 22.9315 18.7943V10.5201C22.9315 8.23518 21.0793 6.38293 18.7944 6.38293Z" stroke="black" stroke-width="2.06856"/>
<path d="M18.7944 27.0685H10.5202C8.23531 27.0685 6.38306 28.9208 6.38306 31.2056V39.4799C6.38306 41.7647 8.23531 43.617 10.5202 43.617H18.7944C21.0793 43.617 22.9315 41.7647 22.9315 39.4799V31.2056C22.9315 28.9208 21.0793 27.0685 18.7944 27.0685Z" stroke="black" stroke-width="2.06856"/>
<path d="M39.48 27.0685H31.2058C28.9209 27.0685 27.0686 28.9208 27.0686 31.2056V39.4799C27.0686 41.7647 28.9209 43.617 31.2058 43.617H39.48C41.7649 43.617 43.6171 41.7647 43.6171 39.4799V31.2056C43.6171 28.9208 41.7649 27.0685 39.48 27.0685Z" stroke="black" stroke-width="2.06856"/>
</svg>
