<svg width="20" height="20" viewBox="0 0 50 50" fill="none" xmlns="http://www.w3.org/2000/svg">
<path d="M16.3581 22.8395L17.122 22.0756L16.1048 21.0585L15.4116 22.3189L16.3581 22.8395ZM33.6421 22.8395L34.5886 22.3189L33.8954 21.0585L32.8782 22.0756L33.6421 22.8395ZM9.87665 6.63579H40.1236V4.4753H9.87665V6.63579ZM43.3643 9.87653V40.1234H45.5248V9.87653H43.3643ZM40.1236 43.3642H9.87665V45.5247H40.1236V43.3642ZM6.63591 40.1234V9.87653H4.47542V40.1234H6.63591ZM9.87665 43.3642C8.08684 43.3642 6.63591 41.9133 6.63591 40.1234H4.47542C4.47542 43.1065 6.89363 45.5247 9.87665 45.5247V43.3642ZM43.3643 40.1234C43.3643 41.9133 41.9134 43.3642 40.1236 43.3642V45.5247C43.1066 45.5247 45.5248 43.1065 45.5248 40.1234H43.3643ZM40.1236 6.63579C41.9134 6.63579 43.3643 8.08672 43.3643 9.87653H45.5248C45.5248 6.89351 43.1066 4.4753 40.1236 4.4753V6.63579ZM9.87665 4.4753C6.89363 4.4753 4.47542 6.89351 4.47542 9.87653H6.63591C6.63591 8.08672 8.08684 6.63579 9.87665 6.63579V4.4753ZM30.4013 15.2778C30.4013 19.0196 27.8329 21.7592 25.0001 21.7592V23.9197C29.3266 23.9197 32.5618 19.8884 32.5618 15.2778H30.4013ZM25.0001 21.7592C22.1673 21.7592 19.5989 19.0196 19.5989 15.2778H17.4384C17.4384 19.8884 20.6737 23.9197 25.0001 23.9197V21.7592ZM19.5989 15.2778C19.5989 13.4538 20.2246 12.131 21.1554 11.2594C22.0974 10.3773 23.4393 9.87653 25.0001 9.87653V7.71604C22.9813 7.71604 21.0825 8.36786 19.6786 9.68243C18.2636 11.0075 17.4384 12.9255 17.4384 15.2778H19.5989ZM25.0001 9.87653C26.5609 9.87653 27.9028 10.3773 28.8448 11.2594C29.7756 12.131 30.4013 13.4538 30.4013 15.2778H32.5618C32.5618 12.9255 31.7367 11.0075 30.3216 9.68243C28.9177 8.36786 27.0189 7.71604 25.0001 7.71604V9.87653ZM15.5943 23.6033C17.1568 25.1659 19.9462 27.0303 23.3142 27.5785C26.7492 28.1377 30.7002 27.3091 34.4059 23.6033L32.8782 22.0756C29.6704 25.2835 26.4197 25.8952 23.6613 25.4461C20.8359 24.9862 18.4401 23.3937 17.122 22.0756L15.5943 23.6033ZM32.6955 23.3601C34.6522 26.9176 36.9596 32.1892 37.6246 36.507C37.96 38.6853 37.8459 40.4306 37.2496 41.5859C36.7164 42.6188 35.7008 43.3642 33.6421 43.3642V45.5247C36.3364 45.5247 38.1924 44.4696 39.1694 42.5769C40.0832 40.8065 40.1176 38.5009 39.7599 36.1782C39.0385 31.4939 36.5929 25.963 34.5886 22.3189L32.6955 23.3601ZM33.6421 43.3642H16.3581V45.5247H33.6421V43.3642ZM15.4116 22.3189C13.4073 25.963 10.9617 31.4939 10.2403 36.1782C9.8826 38.5009 9.91702 40.8065 10.8308 42.5769C11.8078 44.4696 13.6638 45.5247 16.3581 45.5247V43.3642C14.2994 43.3642 13.2837 42.6188 12.7506 41.5859C12.1543 40.4306 12.0402 38.6853 12.3756 36.507C13.0406 32.1892 15.348 26.9176 17.3046 23.3601L15.4116 22.3189Z" fill="black"/>
</svg>
