<svg width="16" height="16" viewBox="0 0 16 16" fill="white" xmlns="http://www.w3.org/2000/svg">
<g clip-path="url(#clip0_597_56)">
<path d="M13.1427 8.00002C12.8271 8.00002 12.5712 8.25586 12.5712 8.57146V14.2856C12.5712 14.6012 12.3154 14.8571 11.9998 14.8571H1.71426C1.39866 14.8571 1.14283 14.6012 1.14283 14.2856V2.85724C1.14283 2.54164 1.39866 2.28581 1.71426 2.28581H8.57131C8.88691 2.28581 9.14275 2.02997 9.14275 1.71437C9.14275 1.39877 8.88691 1.14297 8.57131 1.14297H1.71426C0.767501 1.14297 0 1.91048 0 2.85724V14.2856C0 15.2324 0.767501 15.9999 1.71426 15.9999H11.9998C12.9466 15.9999 13.7141 15.2324 13.7141 14.2856V8.57142C13.7141 8.25586 13.4583 8.00002 13.1427 8.00002Z" fill="white"/>
<path d="M15.3594 0.640904C14.9491 0.230552 14.3926 6.41473e-05 13.8123 0.000131111C13.2317 -0.00154297 12.6746 0.229347 12.2655 0.641272L4.7387 8.16743C4.67625 8.23034 4.62914 8.30681 4.60099 8.39085L3.45815 11.8194C3.35841 12.1188 3.5203 12.4424 3.81972 12.5421C3.87781 12.5614 3.93865 12.5713 3.99985 12.5714C4.06119 12.5713 4.12216 12.5614 4.18042 12.5422L7.60895 11.3994C7.69316 11.3713 7.76966 11.3239 7.83238 11.2611L15.3591 3.73438C16.2134 2.88019 16.2135 1.49519 15.3594 0.640904ZM14.5512 2.92693L7.12266 10.3554L4.90326 11.0965L5.6421 8.87998L13.0734 1.45153C13.482 1.04379 14.1437 1.04446 14.5515 1.453C14.7463 1.64817 14.856 1.91237 14.8568 2.18809C14.8575 2.46529 14.7475 2.73127 14.5512 2.92693Z" fill="white"/>
</g>
<defs>
<clipPath id="clip0_597_56">
<rect width="16" height="16" fill="white"/>
</clipPath>
</defs>
</svg>
