<svg width="20" height="20" viewBox="0 0 50 50" fill="none" xmlns="http://www.w3.org/2000/svg">
<path d="M26.1112 5.70124C30.5499 6.89541 32.8604 15.2453 33.0426 23.8889M33.0426 26.1111C32.8604 34.7547 30.5499 43.1046 26.1112 44.2987M23.889 5.70135C19.4539 6.89591 17.1662 15.2455 16.997 23.8889M17.0001 26.1111C17.1933 34.7476 19.4993 43.0908 23.889 44.2958M43.3003 26.1111C42.8301 33.9771 37.4003 40.5068 30.0954 42.616C30.8898 41.532 31.5466 40.2098 32.0834 38.7519C33.3804 35.2294 34.0595 30.6854 34.1539 26.1111H43.3003ZM43.3003 23.8889H34.1539C34.0595 19.3146 33.3804 14.7706 32.0834 11.248C31.5466 9.79019 30.8898 8.46798 30.0954 7.384C37.4003 9.49314 42.8301 16.0229 43.3003 23.8889ZM26.1112 6.86712C26.6676 7.07477 27.2014 7.44589 27.7169 7.99046C28.5826 8.90477 29.3559 10.2719 29.998 12.0158C31.1812 15.2294 31.8366 19.4954 31.9312 23.8889H26.1112V6.86712ZM26.1112 26.1111H31.9312C31.8366 30.5046 31.1812 34.7706 29.998 37.9841C29.3559 39.7281 28.5826 41.0952 27.7169 42.0095C27.2014 42.5541 26.6676 42.9252 26.1112 43.1329V26.1111ZM23.889 6.8674V23.8889H18.1083C18.1962 19.4943 18.8425 15.2275 20.0183 12.0137C20.6563 10.2698 21.426 8.90312 22.2888 7.98934C22.8021 7.44564 23.334 7.07497 23.889 6.8674ZM18.1115 26.1111H23.889V43.1273C23.3466 42.9194 22.824 42.5516 22.3175 42.0125C21.4581 41.098 20.6887 39.7302 20.0487 37.9854C18.8697 34.771 18.2119 30.5045 18.1115 26.1111ZM15.8887 26.1111C15.989 30.6854 16.6707 35.2289 17.9624 38.7507C18.4995 40.215 19.1564 41.5425 19.9505 42.6291C12.6226 40.5341 7.17111 33.9935 6.69989 26.1111H15.8887ZM17.9314 11.2502C16.6428 14.7724 15.9734 19.3157 15.8857 23.8889H6.69989C7.1703 16.0199 12.6041 9.48817 19.9132 7.38159C19.1199 8.46667 18.4654 9.79058 17.9314 11.2502Z" stroke="black" stroke-width="2.22222"/>
</svg>
