<svg width="640" height="240" viewBox="0 0 640 240" fill="none" xmlns="http://www.w3.org/2000/svg">
<rect width="640" height="240" fill="white"/>
<path d="M41.1042 106.975L38.9409 103.176L36.7896 99.3899L41.1402 99.414L45.5029 99.4381L43.3035 103.2L41.1042 106.975Z" fill="#0E71DD"/>
<path d="M94.2972 27.4C92.9103 27.1616 91.4889 27.2199 90.1261 27.5711C88.7633 27.9223 87.4898 28.5585 86.3891 29.4379C85.6092 30.0025 84.8848 30.6405 84.2258 31.3432C81.0248 34.9341 78.8928 39.3544 78.0724 44.1012C77.877 45.0777 77.7326 46.0638 77.6397 47.0555C77.0748 52.8677 78.2526 58.1011 80.7404 61.5258C81.2814 62.3074 81.9241 63.0131 82.6514 63.624C83.0809 64.0044 83.548 64.3397 84.0455 64.6248C84.9062 65.1298 85.8443 65.4883 86.8217 65.686C87.3759 65.7965 87.9393 65.853 88.5043 65.8548C90.1363 65.7701 91.7334 65.3484 93.1954 64.6159C94.6575 63.8835 95.9532 62.8561 97.0013 61.5981L97.3859 61.164C98.7375 59.5992 99.8734 57.8592 100.763 55.9909C102.66 51.9479 103.637 47.5325 103.623 43.0641C103.587 35.009 99.9939 28.5094 94.2972 27.4ZM100.306 48.4784C99.779 51.2901 98.7749 53.9901 97.3378 56.4612C96.65 57.6151 95.8445 58.6941 94.9342 59.6808C92.5305 62.2613 89.8384 63.419 87.3626 62.9246C86.7831 62.8132 86.2238 62.6139 85.704 62.3337C85.387 62.1525 85.0819 61.9511 84.7906 61.7308C84.05 61.1377 83.4089 60.4293 82.8917 59.6326C80.8005 56.4733 79.8511 51.481 80.5842 46.1632C80.5842 45.6567 80.7284 45.1382 80.8246 44.6197C81.5572 40.4784 83.3974 36.6147 86.1487 33.4414C86.8006 32.7313 87.5258 32.0927 88.312 31.5361C89.5737 30.6063 91.0861 30.0809 92.6507 30.0288C93.0212 30.0305 93.391 30.0627 93.7563 30.1253C97.7825 30.9211 100.487 35.9978 100.763 42.3044C100.85 44.3737 100.693 46.4462 100.294 48.4784H100.306Z" fill="#0E71DD"/>
<path d="M88.3239 31.5731C87.7817 30.7743 87.1303 30.0558 86.389 29.4388C85.2035 28.4075 83.77 27.705 82.2306 27.4009C75.2238 26.0262 68.0849 33.3699 65.9937 44.102C65.5691 46.2453 65.3797 48.4289 65.4289 50.6136C65.6332 58.4758 69.2027 64.6498 74.7431 65.7351C75.2974 65.8449 75.8608 65.9014 76.4257 65.9039C78.6848 65.8451 80.8661 65.0634 82.6512 63.673C83.4226 63.1024 84.1424 62.4649 84.8025 61.7678L84.9107 61.6472C86.4412 59.9781 87.7133 58.088 88.6845 56.04C89.7495 53.8103 90.5211 51.4511 90.9799 49.0219C91.3735 47.0366 91.5668 45.0167 91.5568 42.9926C91.6563 38.9455 90.529 34.9634 88.3239 31.5731ZM88.2157 48.4551C87.498 52.6024 85.6607 56.4728 82.9036 59.6455C82.2613 60.3375 81.5483 60.9599 80.7763 61.5025C80.006 62.0889 79.1259 62.5138 78.1886 62.7521C77.2512 62.9903 76.2757 63.0369 75.32 62.8892C71.0895 62.0572 68.3133 56.4741 68.2893 49.7092C68.2952 47.9887 68.4642 46.2727 68.794 44.5843C70.4045 36.3001 75.6445 29.9935 80.6201 29.9935C80.9867 29.9951 81.3525 30.0274 81.7138 30.0899C82.6453 30.2867 83.5179 30.6997 84.2617 31.2958C85.0171 31.898 85.6705 32.6187 86.1967 33.4302C88.034 36.5596 88.9157 40.1611 88.7325 43.7885C88.7087 45.3649 88.5357 46.9356 88.2157 48.4793V48.4551Z" fill="#FE5722"/>
<path d="M97.7583 91.0572C89.3454 94.2889 79.4183 97.8582 67.5682 101.657C59.6601 104.201 53.2783 106.118 48.1224 107.565L48.4709 105.684L58.35 52.6265L97.1334 41.3276V42.5335L97.7583 91.0572Z" fill="#FE5722"/>
<path d="M122.252 80.4824C116.411 83.3523 108.407 86.9337 97.7585 91.0578L97.1335 41.3765L115.906 46.3928L122.252 80.4824Z" fill="#0E71DD"/>
<path d="M98.4321 141.125L62.3049 133.625L54.9136 132.093L44.0249 129.826L45.6714 120.951L46.2363 117.997L46.4526 116.791C52.9425 115.079 60.8587 112.719 70.201 109.713C79.9839 106.565 89.3222 103.309 97.9274 100.066L98.0235 107.675V110.569L98.1798 123.17V126.052L98.4321 141.125Z" fill="#0E71DD"/>
<path d="M97.8674 100.126V97.1235C89.1781 100.44 79.5994 103.804 69.3237 107.096C60.6464 109.881 53.183 112.124 47.0056 113.801L46.4287 116.875C52.9186 115.155 60.8347 112.792 70.177 109.785C79.9239 106.59 89.2622 103.334 97.8674 100.126Z" fill="#0E71DD"/>
<path d="M47.5463 110.652L46.9694 113.739C42.3303 114.945 38.4243 115.922 35.2515 116.525C32.8795 117.04 30.466 117.339 28.0404 117.417C26.9351 117.476 25.8307 117.286 24.8075 116.863C24.2776 116.615 23.8519 116.188 23.6056 115.657C23.4236 115.252 23.3732 114.801 23.4614 114.366C23.9181 111.557 28.8577 107.397 38.196 101.946L38.4844 101.789L39.8906 104.201L39.6021 104.37C36.0821 106.392 32.7086 108.661 29.5067 111.159C28.2488 112.035 27.1646 113.14 26.3098 114.415C27.17 114.653 28.0693 114.714 28.9538 114.596C31.7541 114.439 37.1384 113.51 47.5463 110.652Z" fill="#0E71DD"/>
<path d="M97.8305 97.0628V94.0723C89.622 97.2316 79.8991 100.668 68.4576 104.358C59.8885 107.108 53.05 109.182 47.5817 110.653L47.0048 113.74C53.1822 112.064 60.6456 109.821 69.3229 107.035C79.5626 103.743 89.1412 100.379 97.8305 97.0628Z" fill="#0E71DD"/>
<path d="M97.7583 91.0578C89.3454 94.2895 79.4183 97.8588 67.5682 101.657C59.6601 104.202 53.2783 106.119 48.1224 107.566L48.4709 105.685C58.3621 95.628 88.9609 63.4798 97.1574 42.5461L97.7583 91.0578Z" fill="#FE5722"/>
<path d="M98.1912 126.051L98.4315 141.124L99.3569 140.919L132.215 133.6L129.163 117.236C121.879 119.732 111.772 122.759 98.1912 126.051Z" fill="#FE5722"/>
<path d="M97.7939 94.0958V97.0863C107.529 93.3723 116.134 89.7185 123.297 86.2336L122.756 83.3516C116.759 86.2939 108.586 89.9235 97.7939 94.0958Z" fill="#FE5722"/>
<path d="M146.89 68.026C146.541 66.8201 145.531 63.2025 129.042 66.8804L129.307 68.3033L129.559 69.6659C142.527 66.7718 144.161 68.7736 144.173 68.7857C144.354 69.4248 142.13 73.2835 128.093 80.6633C127.708 80.8804 127.3 81.0854 126.891 81.3025L124.379 82.5686L122.793 83.3645L123.334 86.2464C123.477 86.1644 123.625 86.0919 123.778 86.0294C125.545 85.1732 127.228 84.3291 128.802 83.5092C141.145 77.0819 147.863 71.5712 146.89 68.026Z" fill="#FE5722"/>
<path d="M126.866 70.305L126.205 67.5556L129.042 66.8924L128.501 64.0225L125.196 66.8683L121.891 69.7141L126.001 71.1611L130.111 72.6082L129.558 69.6779C128.705 69.8588 127.816 70.0638 126.866 70.305Z" fill="#FE5722"/>
<path d="M129.043 66.8796L126.207 67.5429L126.868 70.2922C127.817 70.0511 128.706 69.846 129.56 69.6652L129.307 68.3025L129.043 66.8796Z" fill="#FE5722"/>
<path d="M125.87 99.8482L123.863 89.1281L123.526 87.247L123.334 86.2461C116.123 89.6948 107.566 93.3486 97.8307 97.0988V100.089L97.9268 107.698V110.592C109.945 107.674 119.296 104.961 126.314 102.682L125.87 99.8482Z" fill="#FE5722"/>
<path d="M128.586 114.463L126.386 102.658C119.367 104.937 110.041 107.65 97.9988 110.568L98.155 123.17V126.052C111.736 122.76 121.843 119.733 129.078 117.273L128.586 114.463Z" fill="#FE5722"/>
<path d="M191.149 64.3368C190.741 62.7539 190.529 61.1264 190.519 59.4914C190.722 54.7531 192.78 50.2865 196.246 47.0618C200.063 43.0399 206.566 40.9779 215.754 40.8758C221.785 41.029 228.046 41.412 234.536 41.9674C242.68 42.708 250.78 43.0782 258.835 43.0782H266.47C272.671 42.7837 278.78 41.4569 284.547 39.1521C285.001 40.7013 285.239 42.3062 285.253 43.9209C285.311 46.5321 284.453 49.0807 282.829 51.122C280.92 53.2479 277.828 54.6076 273.399 55.1822C270.503 55.5094 267.591 55.6692 264.676 55.661C259.026 55.661 250.379 55.0609 238.736 53.8607C231.253 53.018 224.089 52.4179 217.242 52.0604H215.143C208.08 52.0604 202.678 53.101 198.937 55.1822C195.269 57.1219 192.482 60.3981 191.149 64.3368ZM217.872 131.943C215.264 131.893 212.703 131.238 210.39 130.028C207.797 128.762 205.628 126.765 204.148 124.282C206.185 125.672 208.546 126.51 211.001 126.714C211.864 126.641 212.716 126.467 213.539 126.197C214.761 125.853 216.154 123.976 217.701 120.452C220.602 113.745 223.101 106.87 225.183 99.8635C227.83 91.3345 230.248 83.3482 232.437 75.9045C234.46 68.7034 235.885 63.9856 236.712 61.7513C237.22 60.5948 238.012 59.5861 239.013 58.8193C240.014 58.0524 241.193 57.5523 242.439 57.3655C243.696 57.113 244.974 56.9847 246.256 56.9825C248.188 57.0375 250.107 57.3008 251.983 57.7677C254.231 58.2654 256.372 59.1673 258.301 60.4298C255.352 64.957 252.932 69.8086 251.085 74.8895C248.769 80.8776 246.6 86.9742 244.576 93.1794C243.088 97.7631 241.662 101.855 240.301 105.456C238.898 109.363 237.234 113.17 235.319 116.851C233.482 120.451 231.164 123.782 228.428 126.753C226.115 129.347 223.04 131.138 219.647 131.866L217.872 131.943Z" fill="#FE5722"/>
<path d="M278.4 118.421C275.639 118.353 272.898 117.922 270.249 117.138C266.823 116.046 263.942 113.683 262.194 110.531C260.013 106.451 258.94 101.867 259.083 97.2395C259.123 93.8561 259.552 90.4888 260.362 87.204C261.287 83.355 262.801 79.6728 264.847 76.2874C266.854 72.8094 269.589 69.8099 272.864 67.4967C276.107 65.2235 279.98 64.0309 283.935 64.0877C287.164 63.9723 290.344 64.906 293.002 66.7498C295.332 68.4122 297.086 70.762 298.022 73.4721C298.587 75.0513 298.878 76.7162 298.881 78.3941C298.874 79.5787 298.746 80.7595 298.499 81.918C297.151 87.1273 294.917 90.6705 291.8 92.5473C289.346 94.1112 286.516 94.9782 283.611 95.0562L280.805 94.903C280.119 94.9006 279.443 94.7446 278.826 94.4464C278.208 94.1482 277.665 93.7153 277.235 93.1793C276.527 95.7503 276.155 98.4027 276.128 101.07C276.193 102.882 276.391 104.687 276.72 106.471C277.102 108.807 278.839 110.473 281.893 111.469C282.452 111.626 283.03 111.703 283.611 111.699C285.596 111.568 287.539 111.061 289.337 110.205C292.152 108.851 294.562 106.777 296.323 104.192C298.75 100.616 300.986 96.9148 303.023 93.1028L304.188 91.1876C304.436 90.7471 304.646 90.5172 304.798 90.5172C304.951 90.5172 305.199 90.8045 305.199 91.379C304.743 95.8571 303.31 100.179 301 104.038C299.35 107.061 297.273 109.828 294.835 112.255C291.79 115.06 288.054 116.998 284.012 117.866C282.166 118.249 280.285 118.435 278.4 118.421ZM280.423 89.2724C282.933 89.3842 285.421 88.7586 287.581 87.4721C288.811 86.7656 289.825 85.7359 290.514 84.494C291.204 83.2521 291.543 81.845 291.494 80.4242C291.459 79.4525 291.259 78.4939 290.902 77.5898C290.763 77.1074 290.472 76.6829 290.073 76.3793C289.675 76.0757 289.189 75.9092 288.688 75.9044C286.805 76.3451 285.144 77.4538 284.012 79.0261C282.222 81.1925 280.774 83.6209 279.717 86.2272C279.241 87.1796 278.851 88.1732 278.552 89.1958L280.423 89.2724Z" fill="#FE5722"/>
<path d="M320.813 118.421C318.058 118.354 315.324 117.923 312.681 117.138C309.247 116.052 306.358 113.688 304.607 110.531C302.426 106.451 301.353 101.867 301.496 97.2395C301.536 93.8561 301.965 90.4888 302.774 87.204C303.7 83.355 305.214 79.6728 307.26 76.2874C309.272 72.8137 312.007 69.8154 315.277 67.4967C318.52 65.2235 322.393 64.0309 326.348 64.0877C329.577 63.9723 332.757 64.906 335.415 66.7498C337.75 68.4111 339.511 70.7607 340.454 73.4721C341.019 75.0513 341.31 76.7162 341.313 78.3941C341.309 79.5799 341.174 80.7617 340.912 81.918C339.564 87.1273 337.33 90.6705 334.212 92.5473C331.765 94.1079 328.942 94.9748 326.043 95.0562L323.237 94.903C322.549 94.9007 321.87 94.7449 321.249 94.4468C320.628 94.1487 320.082 93.7157 319.648 93.1793C318.955 95.7529 318.59 98.4042 318.56 101.07C318.617 102.882 318.808 104.687 319.133 106.471C319.534 108.807 321.252 110.473 324.325 111.469C324.884 111.629 325.462 111.706 326.043 111.699C328.028 111.564 329.97 111.058 331.769 110.205C334.575 108.845 336.976 106.771 338.736 104.192C341.177 100.625 343.413 96.923 345.436 93.1028L346.601 91.1876C346.868 90.7471 347.078 90.5172 347.231 90.5172C347.383 90.5172 347.612 90.8045 347.612 91.379C347.167 95.8595 345.733 100.184 343.413 104.038C341.762 107.061 339.686 109.828 337.247 112.255C334.203 115.06 330.466 116.998 326.425 117.866C324.579 118.249 322.698 118.435 320.813 118.421ZM322.722 89.2724C325.237 89.3813 327.73 88.756 329.899 87.4721C331.112 86.7548 332.108 85.7201 332.78 84.4787C333.453 83.2373 333.776 81.8358 333.716 80.4242C333.691 79.4513 333.49 78.4911 333.125 77.5898C332.985 77.1074 332.694 76.6829 332.295 76.3793C331.897 76.0757 331.411 75.9092 330.91 75.9044C329.027 76.3451 327.366 77.4538 326.234 79.0261C324.451 81.1972 323.003 83.6246 321.939 86.2272C321.471 87.1832 321.081 88.1761 320.775 89.1958L322.722 89.2724Z" fill="#FE5722"/>
<path d="M389.416 119.207C384.01 117.285 378.315 116.306 372.58 116.315C371.435 116.315 368.763 116.449 364.716 116.736C360.519 117.062 356.353 117.702 352.251 118.651C350.869 118.967 349.466 119.178 348.052 119.283C344.311 119.168 342.44 117.789 342.44 115.146C342.44 114.974 342.44 114.093 342.631 112.484C342.822 110.876 344.234 107.792 347.079 103.253C350.079 98.4722 353.368 93.8799 356.928 89.5022C360.669 84.8674 364.041 80.8902 367.045 77.5706C370.06 74.2764 371.912 72.3038 372.58 71.6718H361.452C360.516 76.2683 358.398 78.5473 355.134 78.5473C353.884 78.4541 352.689 77.9946 351.698 77.2258C350.4 76.3449 349.789 74.4488 349.789 71.4803C349.805 69.8732 350.417 68.3298 351.507 67.1519C352.146 66.4576 352.932 65.9164 353.808 65.5683C354.683 65.2202 355.626 65.0742 356.565 65.141H390.466C393.577 65.7156 395.142 67.4201 395.142 70.2354C395.108 72.4046 394.341 74.4979 392.966 76.1725C387.418 82.479 381.428 88.38 375.042 93.8305C371.931 96.6075 369.316 99.0015 367.407 101.07C365.831 102.388 364.719 104.181 364.239 106.183L366.663 105.322C371.418 103.104 376.546 101.805 381.781 101.491C382.391 101.491 383.575 101.491 385.274 101.74C386.972 101.989 388.5 103.292 389.798 105.954C390.424 107.489 390.716 109.141 390.656 110.799C390.55 113.639 390.134 116.458 389.416 119.207Z" fill="#FE5722"/>
<path d="M435.914 119.437H435.609C429.335 118.76 425.855 114.694 425.167 107.237C423.423 110.12 421.119 112.621 418.391 114.591C415.845 116.474 412.71 117.377 409.557 117.134C406.403 116.891 403.442 115.52 401.212 113.27C397.674 109.516 395.912 104.096 395.925 97.01C395.994 94.2908 396.281 91.5817 396.784 88.9088C397.527 85.0297 398.894 81.2976 400.83 77.8581C402.822 73.9909 405.637 70.6106 409.076 67.9567C412.44 65.4029 416.56 64.0542 420.777 64.1263C427.573 64.1263 431.466 67.2672 432.459 73.5107L434.005 70.0059C434.542 68.8699 435.342 67.8793 436.338 67.1164C437.335 66.3535 438.498 65.8405 439.732 65.6201C441.045 65.3581 442.382 65.2298 443.721 65.2371C445.58 65.2921 447.428 65.5359 449.237 65.9648C451.469 66.4622 453.587 67.3784 455.479 68.6653C453.371 71.777 451.544 75.0714 450.02 78.5093C447.946 82.9525 445.999 87.6447 444.179 92.5859C442.595 96.757 441.319 101.039 440.362 105.398C440.131 106.534 440.003 107.688 439.98 108.846C439.98 110.512 440.438 111.355 441.373 111.355C444.389 111.355 448.366 107.129 453.303 98.6762C455.581 94.8458 457.006 92.3242 457.579 91.1112C457.846 90.6899 458.056 90.4792 458.209 90.4792C458.457 90.4792 458.591 90.7665 458.591 91.341C458.148 95.9007 456.729 100.311 454.429 104.269C452.165 108.38 449.199 112.062 445.668 115.147C443.029 117.696 439.571 119.218 435.914 119.437ZM415.28 111.316C417.036 111.144 418.926 109.401 421.006 105.801C423.17 101.896 424.904 97.7668 426.179 93.486C427.548 89.3211 428.313 84.9803 428.451 80.5969C428.451 77.5709 427.515 76.0004 425.645 75.9047C424.582 76.1846 423.587 76.6787 422.72 77.357C421.854 78.0353 421.134 78.8835 420.605 79.8499C418.788 82.5944 417.302 85.5452 416.177 88.6406C414.877 92.0125 413.874 95.4923 413.18 99.0401C412.739 101.228 412.502 103.453 412.474 105.686C412.474 106.414 412.474 107.601 412.703 109.037C412.709 109.361 412.782 109.681 412.918 109.975C413.054 110.269 413.249 110.532 413.491 110.746C413.734 110.96 414.018 111.122 414.326 111.22C414.634 111.318 414.959 111.351 415.28 111.316Z" fill="#FE5722"/>
<path d="M464.909 119.839C463.656 119.76 462.428 119.455 461.283 118.939C459.901 118.409 458.715 117.467 457.885 116.238C455.5 112.053 454.317 107.287 454.468 102.468C454.468 102.277 454.468 100.668 454.583 97.661C454.896 93.2739 455.651 88.9299 456.835 84.6952C457.954 79.984 459.454 75.3722 461.321 70.9058C461.826 69.7473 462.617 68.7368 463.618 67.9695C464.62 67.2023 465.8 66.7034 467.047 66.5201C468.258 66.312 469.484 66.2094 470.712 66.2137C472.707 66.2562 474.692 66.5196 476.63 66.9989C478.933 67.5074 481.117 68.4567 483.062 69.7951C478.125 75.5789 474.097 84.0249 470.979 95.133L473.155 90.8238C474.943 87.4134 476.912 84.1017 479.054 80.9031C481.468 77.2109 484.285 73.8001 487.452 70.7335C490.16 67.9533 493.615 66.0235 497.397 65.1795H498.333C499.499 65.0993 500.662 65.3793 501.665 65.9819C502.669 66.5845 503.464 67.4807 503.944 68.5502C504.866 70.6412 505.315 72.9104 505.262 75.1959C505.262 76.0769 505.147 77.7048 504.918 80.0413C504.478 82.9917 503.514 85.8392 502.074 88.4489C500.797 91.296 498.597 93.6251 495.832 95.0563C495.104 95.4036 494.309 95.5867 493.503 95.5926C491.201 95.4239 489.038 94.4237 487.414 92.7773C488.762 91.9176 489.884 90.7447 490.685 89.3579C491.486 87.9711 491.942 86.4112 492.014 84.8101C492.014 82.6268 491.27 81.4394 489.762 81.2862C488.254 81.133 486.345 83.0482 483.406 86.5721C479.98 90.8584 477.053 95.5234 474.683 100.476C471.754 106.357 469.721 112.645 468.651 119.13C467.463 119.613 466.191 119.854 464.909 119.839Z" fill="#FE5722"/>
<path d="M546.243 119.436H545.938C539.639 118.759 536.158 114.693 535.497 107.236C533.741 110.11 531.439 112.61 528.72 114.591C526.598 116.184 524.04 117.087 521.39 117.176C519.565 117.285 517.738 117 516.032 116.339C514.326 115.678 512.782 114.657 511.503 113.346C507.953 109.515 506.196 104.172 506.196 97.0858C506.266 94.3667 506.553 91.6576 507.055 88.9846C507.808 85.1081 509.174 81.3774 511.102 77.934C513.078 74.0185 515.886 70.5861 519.329 67.8793C522.687 65.3283 526.8 63.9797 531.011 64.0489C537.806 64.0489 541.719 67.1898 542.693 73.4333L544.258 69.9286C544.792 68.7908 545.592 67.7985 546.588 67.0353C547.585 66.272 548.749 65.7602 549.984 65.5428C551.291 65.2799 552.622 65.1515 553.955 65.1597C555.82 65.2145 557.674 65.4583 559.49 65.8875C561.717 66.3813 563.829 67.2979 565.713 68.5879C563.612 71.7008 561.791 74.9952 560.273 78.432C558.186 82.8752 556.232 87.5674 554.413 92.5085C552.837 96.6826 551.561 100.964 550.595 105.321C550.374 106.458 550.246 107.611 550.213 108.768C550.213 110.435 550.691 111.277 551.626 111.277C554.616 111.277 558.587 107.051 563.537 98.5989C565.827 94.7685 567.253 92.2468 567.812 91.0339C568.08 90.6125 568.29 90.4019 568.442 90.4019C568.595 90.4019 568.729 90.6891 568.843 91.2637C568.367 95.8417 566.915 100.264 564.587 104.23C562.336 108.351 559.369 112.035 555.825 115.108C553.237 117.636 549.845 119.168 546.243 119.436ZM525.59 111.316C527.365 111.143 529.236 109.4 531.316 105.8C533.479 101.892 535.219 97.7638 536.508 93.4853C537.863 89.3174 538.621 84.9778 538.761 80.5961C538.761 77.5702 537.825 75.9997 535.955 75.9039C534.893 76.182 533.9 76.6756 533.037 77.3542C532.173 78.0328 531.458 78.882 530.934 79.8492C529.111 82.5927 527.618 85.5436 526.487 88.6399C525.195 92.0146 524.193 95.4937 523.49 99.0393C523.058 101.229 522.822 103.453 522.784 105.685C522.808 106.806 522.891 107.925 523.032 109.037C523.038 109.359 523.111 109.676 523.246 109.969C523.38 110.262 523.574 110.523 523.814 110.738C524.054 110.952 524.336 111.114 524.642 111.213C524.947 111.313 525.27 111.347 525.59 111.316Z" fill="#FE5722"/>
<path d="M574.684 119.436H574.36C572.125 119.283 570.012 118.358 568.38 116.818C566.748 115.278 565.698 113.219 565.408 110.99C564.813 108.403 564.525 105.755 564.549 103.1C564.669 98.7574 565.155 94.433 565.999 90.1724C567.172 83.8363 568.74 77.5804 570.695 71.4418H565.789L568.29 65.1025H572.776C575.257 58.0738 577.166 52.9794 578.502 49.7811C579.035 48.6423 579.834 47.6493 580.831 46.8859C581.828 46.1224 582.993 45.6112 584.228 45.3953C585.483 45.1285 586.763 45 588.046 45.0123C589.977 45.0619 591.896 45.3187 593.772 45.7783C595.988 46.2869 598.095 47.1885 599.995 48.4405C596.97 53.7757 594.366 59.3404 592.207 65.0834H598.525L596.025 71.4227H589.707C584.095 86.0164 580.589 97.067 579.189 104.575C578.916 105.886 578.763 107.219 578.731 108.558C578.731 110.378 579.227 111.297 580.201 111.297C581.919 111.297 584.019 109.995 586.252 107.466C588.679 104.699 590.863 101.726 592.78 98.58C594.841 95.2859 596.254 92.8344 597.037 91.4363C597.342 90.8043 597.609 90.4979 597.819 90.4979C598.029 90.4979 598.277 90.7852 598.277 91.3598C597.781 95.952 596.24 100.368 593.772 104.268C591.357 108.401 588.244 112.082 584.572 115.146C581.864 117.672 578.373 119.187 574.684 119.436Z" fill="#FE5722"/>
<path d="M22.0363 206.535L26.0163 172.288H32.5879L40.4553 198.529L48.2765 172.288H54.8019L58.8281 206.535H52.2102L49.5723 184.09L43.6023 206.535H37.1695L31.1995 184.367L28.6542 206.535H22.0363ZM96.0495 206.813C93.7047 206.813 91.653 206.597 89.8944 206.165C88.1358 205.702 86.6703 204.869 85.4979 203.666C84.3255 202.432 83.4308 200.673 82.8137 198.39C82.2275 196.107 81.9344 193.129 81.9344 189.458C81.9344 185.786 82.2275 182.809 82.8137 180.526C83.4308 178.212 84.3255 176.438 85.4979 175.204C86.7012 173.97 88.1667 173.121 89.8944 172.659C91.653 172.196 93.7047 171.964 96.0495 171.964C98.3943 171.964 100.446 172.196 102.205 172.659C103.963 173.121 105.429 173.97 106.601 175.204C107.774 176.438 108.653 178.212 109.239 180.526C109.825 182.809 110.118 185.786 110.118 189.458C110.118 193.129 109.825 196.107 109.239 198.39C108.653 200.673 107.774 202.432 106.601 203.666C105.429 204.869 103.948 205.702 102.158 206.165C100.4 206.597 98.3635 206.813 96.0495 206.813ZM96.0495 200.657C97.407 200.657 98.5486 200.519 99.4742 200.241C100.431 199.932 101.171 199.377 101.696 198.575C102.251 197.773 102.652 196.647 102.899 195.197C103.146 193.716 103.269 191.803 103.269 189.458C103.269 187.021 103.146 185.061 102.899 183.58C102.652 182.069 102.251 180.927 101.696 180.156C101.14 179.354 100.4 178.814 99.4742 178.536C98.5486 178.258 97.407 178.12 96.0495 178.12C94.692 178.12 93.5505 178.258 92.6249 178.536C91.7301 178.814 90.9897 179.354 90.4035 180.156C89.8481 180.927 89.4316 182.069 89.1539 183.58C88.9071 185.061 88.7837 187.021 88.7837 189.458C88.7837 191.803 88.8917 193.716 89.1077 195.197C89.3545 196.647 89.7556 197.773 90.3109 198.575C90.8663 199.377 91.6067 199.932 92.5323 200.241C93.4579 200.519 94.6303 200.657 96.0495 200.657ZM135.304 206.535V172.288H140.812L155.158 194.873V172.288H162.007V206.535H156.5L142.2 183.951V206.535H135.304ZM195.888 206.766C195.148 206.766 194.299 206.689 193.343 206.535C192.387 206.412 191.461 206.103 190.566 205.609C189.702 205.116 188.977 204.375 188.391 203.388C187.836 202.37 187.558 200.981 187.558 199.223V180.11C187.558 178.073 187.959 176.484 188.761 175.343C189.563 174.201 190.566 173.415 191.769 172.983C192.973 172.52 194.176 172.288 195.379 172.288C198.835 172.288 201.719 172.35 204.033 172.474C206.347 172.597 208.399 172.736 210.189 172.89V178.629H197.416C196.459 178.629 195.719 178.86 195.194 179.323C194.67 179.786 194.407 180.495 194.407 181.452V186.404L207.967 186.774V192.188L194.407 192.559V197.279C194.407 198.482 194.685 199.3 195.24 199.732C195.827 200.133 196.505 200.334 197.277 200.334H210.189V206.072C208.121 206.288 205.792 206.458 203.2 206.581C200.609 206.705 198.171 206.766 195.888 206.766ZM243.217 206.535V196.168L232.897 172.288H240.024L246.78 189.18L253.491 172.288H260.34L250.066 196.168V206.535H243.217ZM315.863 206.535V172.288H330.025C331.814 172.288 333.449 172.597 334.93 173.214C336.411 173.8 337.583 174.895 338.447 176.5C339.342 178.073 339.789 180.326 339.789 183.257C339.789 185.385 339.527 187.082 339.003 188.347C338.478 189.581 337.799 190.538 336.966 191.217C336.133 191.895 335.27 192.42 334.375 192.79L340.761 206.535H333.773L328.266 193.854C327.495 193.854 326.584 193.854 325.535 193.854C324.486 193.824 323.545 193.793 322.712 193.762V206.535H315.863ZM322.712 188.347H328.821C330.055 188.347 331.043 188.008 331.783 187.329C332.554 186.619 332.94 185.262 332.94 183.257C332.94 181.313 332.554 180.032 331.783 179.415C331.012 178.767 330.025 178.444 328.821 178.444H322.712V188.347ZM373.108 206.766C372.368 206.766 371.519 206.689 370.563 206.535C369.606 206.412 368.681 206.103 367.786 205.609C366.922 205.116 366.197 204.375 365.611 203.388C365.056 202.37 364.778 200.981 364.778 199.223V180.11C364.778 178.073 365.179 176.484 365.981 175.343C366.783 174.201 367.786 173.415 368.989 172.983C370.193 172.52 371.396 172.288 372.599 172.288C376.055 172.288 378.939 172.35 381.253 172.474C383.567 172.597 385.619 172.736 387.408 172.89V178.629H374.635C373.679 178.629 372.939 178.86 372.414 179.323C371.89 179.786 371.627 180.495 371.627 181.452V186.404L385.187 186.774V192.188L371.627 192.559V197.279C371.627 198.482 371.905 199.3 372.46 199.732C373.046 200.133 373.725 200.334 374.497 200.334H387.408V206.072C385.341 206.288 383.012 206.458 380.42 206.581C377.829 206.705 375.391 206.766 373.108 206.766ZM423.815 206.813C421.841 206.813 420.082 206.581 418.539 206.118C416.997 205.656 415.701 204.807 414.652 203.573C413.603 202.339 412.801 200.58 412.245 198.297C411.69 195.983 411.412 192.991 411.412 189.319C411.412 185.771 411.69 182.871 412.245 180.619C412.832 178.366 413.665 176.608 414.745 175.343C415.824 174.078 417.136 173.199 418.678 172.705C420.221 172.211 421.964 171.964 423.908 171.964C426.191 171.964 428.258 172.15 430.109 172.52C431.991 172.859 433.488 173.214 434.598 173.584V178.906C433.765 178.721 432.5 178.552 430.803 178.397C429.137 178.212 427.317 178.12 425.342 178.12C424.047 178.12 422.936 178.274 422.01 178.582C421.116 178.86 420.391 179.4 419.835 180.202C419.311 180.973 418.91 182.1 418.632 183.58C418.385 185.061 418.262 186.99 418.262 189.365C418.262 192.451 418.462 194.811 418.863 196.446C419.264 198.05 419.974 199.161 420.992 199.778C422.01 200.364 423.46 200.657 425.342 200.657C427.656 200.657 429.554 200.611 431.035 200.519C432.516 200.426 433.704 200.318 434.598 200.195V205.47C433.333 205.902 431.806 206.242 430.017 206.489C428.258 206.705 426.191 206.813 423.815 206.813ZM467.187 206.766C466.446 206.766 465.598 206.689 464.641 206.535C463.685 206.412 462.759 206.103 461.865 205.609C461.001 205.116 460.276 204.375 459.689 203.388C459.134 202.37 458.856 200.981 458.856 199.223V180.11C458.856 178.073 459.258 176.484 460.06 175.343C460.862 174.201 461.865 173.415 463.068 172.983C464.271 172.52 465.474 172.288 466.678 172.288C470.133 172.288 473.018 172.35 475.332 172.474C477.646 172.597 479.697 172.736 481.487 172.89V178.629H468.714C467.757 178.629 467.017 178.86 466.492 179.323C465.968 179.786 465.706 180.495 465.706 181.452V186.404L479.266 186.774V192.188L465.706 192.559V197.279C465.706 198.482 465.983 199.3 466.539 199.732C467.125 200.133 467.804 200.334 468.575 200.334H481.487V206.072C479.42 206.288 477.09 206.458 474.499 206.581C471.907 206.705 469.47 206.766 467.187 206.766ZM506.37 206.535V172.288H513.22V206.535H506.37ZM539.06 206.535V172.288H553.499C554.61 172.288 555.736 172.427 556.878 172.705C558.05 172.952 559.115 173.476 560.071 174.278C561.058 175.05 561.845 176.222 562.431 177.796C563.048 179.369 563.357 181.452 563.357 184.043C563.357 186.666 563.048 188.779 562.431 190.384C561.845 191.957 561.074 193.16 560.117 193.993C559.161 194.826 558.127 195.382 557.017 195.659C555.906 195.937 554.826 196.076 553.777 196.076C553.037 196.076 552.142 196.03 551.093 195.937C550.075 195.844 549.087 195.736 548.131 195.613C547.175 195.49 546.434 195.397 545.91 195.335V206.535H539.06ZM545.91 189.921H552.713C553.916 189.921 554.841 189.473 555.489 188.579C556.137 187.684 556.461 186.188 556.461 184.09C556.461 182.022 556.122 180.572 555.443 179.739C554.795 178.875 553.931 178.444 552.851 178.444H545.91V189.921ZM594.877 206.535V178.444H585.482V172.288H611.167V178.444H601.726V206.535H594.877Z" fill="#0E71DD"/>
</svg>
