<svg width="20" height="20" viewBox="0 0 50 50" fill="none" xmlns="http://www.w3.org/2000/svg">
<path d="M15.2779 18.5185C15.2779 19.1151 15.7615 19.5988 16.3581 19.5988C16.9547 19.5988 17.4384 19.1151 17.4384 18.5185H15.2779ZM32.5618 18.5185C32.5618 19.1151 33.0455 19.5988 33.6421 19.5988C34.2387 19.5988 34.7223 19.1151 34.7223 18.5185H32.5618ZM9.87665 17.4383H40.1236V15.2778H9.87665V17.4383ZM43.3643 20.679V40.1234H45.5248V20.679H43.3643ZM40.1236 43.3642H9.87665V45.5247H40.1236V43.3642ZM6.63591 40.1234V20.679H4.47542V40.1234H6.63591ZM9.87665 43.3642C8.08684 43.3642 6.63591 41.9133 6.63591 40.1234H4.47542C4.47542 43.1065 6.89363 45.5247 9.87665 45.5247V43.3642ZM43.3643 40.1234C43.3643 41.9133 41.9134 43.3642 40.1236 43.3642V45.5247C43.1066 45.5247 45.5248 43.1065 45.5248 40.1234H43.3643ZM40.1236 17.4383C41.9134 17.4383 43.3643 18.8892 43.3643 20.679H45.5248C45.5248 17.696 43.1066 15.2778 40.1236 15.2778V17.4383ZM9.87665 15.2778C6.89363 15.2778 4.47542 17.696 4.47542 20.679H6.63591C6.63591 18.8892 8.08684 17.4383 9.87665 17.4383V15.2778ZM9.87665 12.037H40.1236V9.87653H9.87665V12.037ZM43.3643 15.2778V39.0432H45.5248V15.2778H43.3643ZM40.1236 42.2839H9.87665V44.4444H40.1236V42.2839ZM6.63591 39.0432V15.2778H4.47542V39.0432H6.63591ZM9.87665 42.2839C8.08684 42.2839 6.63591 40.833 6.63591 39.0432H4.47542C4.47542 42.0262 6.89363 44.4444 9.87665 44.4444V42.2839ZM43.3643 39.0432C43.3643 40.833 41.9134 42.2839 40.1236 42.2839V44.4444C43.1066 44.4444 45.5248 42.0262 45.5248 39.0432H43.3643ZM40.1236 12.037C41.9134 12.037 43.3643 13.488 43.3643 15.2778H45.5248C45.5248 12.2947 43.1066 9.87653 40.1236 9.87653V12.037ZM9.87665 9.87653C6.89363 9.87653 4.47542 12.2947 4.47542 15.2778H6.63591C6.63591 13.488 8.08684 12.037 9.87665 12.037V9.87653ZM17.4384 18.5185V7.71604H15.2779V18.5185H17.4384ZM18.5186 6.63579H31.4816V4.4753H18.5186V6.63579ZM32.5618 7.71604V18.5185H34.7223V7.71604H32.5618ZM31.4816 6.63579C32.0782 6.63579 32.5618 7.11943 32.5618 7.71604H34.7223C34.7223 5.92622 33.2714 4.4753 31.4816 4.4753V6.63579ZM17.4384 7.71604C17.4384 7.11943 17.922 6.63579 18.5186 6.63579V4.4753C16.7288 4.4753 15.2779 5.92622 15.2779 7.71604H17.4384Z" fill="black"/>
</svg>
