<svg width="20" height="20" viewBox="0 0 50 50" fill="none" xmlns="http://www.w3.org/2000/svg">
<path d="M24.7961 5.55554L8.09265 15.1065C7.92313 15.2035 7.92313 15.4373 8.09265 15.5342L24.7961 25.0852M25.2042 5.55554L41.9076 15.1065C42.0771 15.2035 42.0771 15.4373 41.9076 15.5342L25.2042 25.0852M5.95411 20.4043L21.5097 28.2704C21.5948 28.3134 21.6476 28.3951 21.6476 28.4838V44.2C21.6476 44.3861 21.4279 44.5038 21.2492 44.4134L5.69361 36.5472C5.60847 36.5042 5.55566 36.4225 5.55566 36.3339V20.6177C5.55566 20.4315 5.77535 20.3139 5.95411 20.4043ZM44.0461 20.4043L28.4906 28.2704C28.4054 28.3134 28.3526 28.3951 28.3526 28.4838V44.2C28.3526 44.3861 28.5723 44.5038 28.7511 44.4134L44.3066 36.5472C44.3917 36.5042 44.4446 36.4225 44.4446 36.3339V20.6177C44.4446 20.4315 44.2249 20.3139 44.0461 20.4043Z" stroke="black" stroke-width="2.16049" stroke-linecap="round"/>
</svg>
