<svg width="20" height="20" viewBox="0 0 50 50" fill="none" xmlns="http://www.w3.org/2000/svg">
<path d="M40.1236 5.55554H9.87665C7.49024 5.55554 5.55566 7.49011 5.55566 9.87653V18.6306C5.55566 19.9103 6.19525 21.1054 7.26007 21.8153C9.53262 23.3303 9.53262 26.6697 7.26007 28.1847C6.19525 28.8946 5.55566 30.0897 5.55566 31.3694V40.1234C5.55566 42.5099 7.49024 44.4444 9.87665 44.4444H40.1236C42.51 44.4444 44.4446 42.5099 44.4446 40.1234V31.3694C44.4446 30.0897 43.805 28.8946 42.7401 28.1847C40.4676 26.6697 40.4676 23.3303 42.7401 21.8153C43.805 21.1054 44.4446 19.9103 44.4446 18.6306V9.87653C44.4446 7.49011 42.51 5.55554 40.1236 5.55554Z" stroke="black" stroke-width="2.16049"/>
<path d="M23.9198 16.3581C23.9198 19.3411 21.5016 21.7593 18.5186 21.7593C15.5356 21.7593 13.1174 19.3411 13.1174 16.3581C13.1174 13.375 15.5356 10.9568 18.5186 10.9568C21.5016 10.9568 23.9198 13.375 23.9198 16.3581ZM19.5988 35.8025C19.5988 37.5923 18.1479 39.0433 16.3581 39.0433C14.5683 39.0433 13.1174 37.5923 13.1174 35.8025C13.1174 34.0127 14.5683 32.5618 16.3581 32.5618C18.1479 32.5618 19.5988 34.0127 19.5988 35.8025Z" stroke="black" stroke-width="2.16049"/>
</svg>
