<svg width="20" height="20" viewBox="0 0 50 50" fill="none" xmlns="http://www.w3.org/2000/svg">
<path d="M12.0371 10.9568C11.4405 10.9568 10.9569 11.4404 10.9569 12.037C10.9569 12.6336 11.4405 13.1173 12.0371 13.1173V10.9568ZM28.2408 13.1173C28.8375 13.1173 29.3211 12.6336 29.3211 12.037C29.3211 11.4404 28.8375 10.9568 28.2408 10.9568V13.1173ZM12.0371 17.4383C11.4405 17.4383 10.9569 17.9219 10.9569 18.5185C10.9569 19.1151 11.4405 19.5988 12.0371 19.5988V17.4383ZM37.9631 19.5988C38.5597 19.5988 39.0433 19.1151 39.0433 18.5185C39.0433 17.9219 38.5597 17.4383 37.9631 17.4383V19.5988ZM12.0371 23.9197C11.4405 23.9197 10.9569 24.4034 10.9569 25C10.9569 25.5966 11.4405 26.0802 12.0371 26.0802V23.9197ZM37.9631 26.0802C38.5597 26.0802 39.0433 25.5966 39.0433 25C39.0433 24.4034 38.5597 23.9197 37.9631 23.9197V26.0802ZM12.0371 30.4012C11.4405 30.4012 10.9569 30.8849 10.9569 31.4815C10.9569 32.0781 11.4405 32.5617 12.0371 32.5617V30.4012ZM26.0804 32.5617C26.677 32.5617 27.1606 32.0781 27.1606 31.4815C27.1606 30.8849 26.677 30.4012 26.0804 30.4012V32.5617ZM29.3211 36.8827C28.7245 36.8827 28.2408 37.3663 28.2408 37.9629C28.2408 38.5596 28.7245 39.0432 29.3211 39.0432V36.8827ZM39.0433 39.0432C39.6399 39.0432 40.1236 38.5596 40.1236 37.9629C40.1236 37.3663 39.6399 36.8827 39.0433 36.8827V39.0432ZM9.87665 6.63579H40.1236V4.4753H9.87665V6.63579ZM43.3643 9.87653V40.1234H45.5248V9.87653H43.3643ZM40.1236 43.3642H9.87665V45.5247H40.1236V43.3642ZM6.63591 40.1234V9.87653H4.47542V40.1234H6.63591ZM9.87665 43.3642C8.08684 43.3642 6.63591 41.9133 6.63591 40.1234H4.47542C4.47542 43.1065 6.89363 45.5247 9.87665 45.5247V43.3642ZM43.3643 40.1234C43.3643 41.9133 41.9134 43.3642 40.1236 43.3642V45.5247C43.1066 45.5247 45.5248 43.1065 45.5248 40.1234H43.3643ZM40.1236 6.63579C41.9134 6.63579 43.3643 8.08672 43.3643 9.87653H45.5248C45.5248 6.89351 43.1066 4.4753 40.1236 4.4753V6.63579ZM9.87665 4.4753C6.89363 4.4753 4.47542 6.89351 4.47542 9.87653H6.63591C6.63591 8.08672 8.08684 6.63579 9.87665 6.63579V4.4753ZM12.0371 13.1173H28.2408V10.9568H12.0371V13.1173ZM12.0371 19.5988H37.9631V17.4383H12.0371V19.5988ZM12.0371 26.0802H37.9631V23.9197H12.0371V26.0802ZM12.0371 32.5617H26.0804V30.4012H12.0371V32.5617ZM29.3211 39.0432H39.0433V36.8827H29.3211V39.0432Z" fill="black"/>
</svg>
