<svg width="20" height="20" viewBox="0 0 51 51" fill="none" xmlns="http://www.w3.org/2000/svg">
<path d="M9.36504 8.13489H24.9206V6.15076H9.36504V8.13489ZM26.1508 10.1428V31.1428H28.1349V10.1428H26.1508ZM24.9206 33.1508H9.36504V35.1349H24.9206V33.1508ZM8.13489 31.1428V10.1428H6.15076V31.1428H8.13489ZM9.36504 33.1508C9.13901 33.1508 8.8543 33.0293 8.59088 32.6736C8.32757 32.3182 8.13489 31.7802 8.13489 31.1428H6.15076C6.15076 32.1623 6.45553 33.1243 6.99652 33.8546C7.53738 34.5848 8.36378 35.1349 9.36504 35.1349V33.1508ZM26.1508 31.1428C26.1508 31.7802 25.9581 32.3182 25.6948 32.6736C25.4313 33.0293 25.1466 33.1508 24.9206 33.1508V35.1349C25.9219 35.1349 26.7483 34.5848 27.2891 33.8546C27.8301 33.1243 28.1349 32.1623 28.1349 31.1428H26.1508ZM24.9206 8.13489C25.1466 8.13489 25.4313 8.25638 25.6948 8.61201C25.9581 8.96746 26.1508 9.50544 26.1508 10.1428H28.1349C28.1349 9.12336 27.8301 8.16133 27.2891 7.431C26.7483 6.70083 25.9219 6.15076 24.9206 6.15076V8.13489ZM9.36504 6.15076C8.36378 6.15076 7.53738 6.70083 6.99652 7.431C6.45553 8.16133 6.15076 9.12335 6.15076 10.1428H8.13489C8.13489 9.50544 8.32757 8.96746 8.59088 8.61201C8.8543 8.25638 9.13901 8.13489 9.36504 8.13489V6.15076Z" fill="black"/>
<path d="M25.2222 13.9921H40.7778V12.0079H25.2222V13.9921ZM42.0079 16.3333V39.6667H43.9921V16.3333H42.0079ZM40.7778 42.0079H25.2222V43.9921H40.7778V42.0079ZM23.9921 39.6667V16.3333H22.0079V39.6667H23.9921ZM25.2222 42.0079C25.0435 42.0079 24.7602 41.8992 24.4763 41.4734C24.197 41.0545 23.9921 40.4186 23.9921 39.6667H22.0079C22.0079 40.7557 22.3004 41.7865 22.8254 42.574C23.3458 43.3546 24.1737 43.9921 25.2222 43.9921V42.0079ZM42.0079 39.6667C42.0079 40.4186 41.803 41.0545 41.5237 41.4734C41.2398 41.8992 40.9565 42.0079 40.7778 42.0079V43.9921C41.8263 43.9921 42.6542 43.3546 43.1746 42.574C43.6996 41.7865 43.9921 40.7557 43.9921 39.6667H42.0079ZM40.7778 13.9921C40.9565 13.9921 41.2398 14.1008 41.5237 14.5266C41.803 14.9455 42.0079 15.5814 42.0079 16.3333H43.9921C43.9921 15.2443 43.6996 14.2135 43.1746 13.426C42.6542 12.6454 41.8263 12.0079 40.7778 12.0079V13.9921ZM25.2222 12.0079C24.1737 12.0079 23.3458 12.6454 22.8254 13.426C22.3004 14.2135 22.0079 15.2443 22.0079 16.3333H23.9921C23.9921 15.5814 24.197 14.9455 24.4763 14.5266C24.7602 14.1008 25.0435 13.9921 25.2222 13.9921V12.0079Z" fill="black"/>
</svg>
