<svg width="20" height="20" viewBox="0 0 50 50" fill="none" xmlns="http://www.w3.org/2000/svg">
<path d="M11.1111 8.13489H38.8889V6.15076H11.1111V8.13489ZM41.865 11.1111V38.8889H43.8492V11.1111H41.865ZM38.8889 41.865H11.1111V43.8492H38.8889V41.865ZM8.13489 38.8889V11.1111H6.15076V38.8889H8.13489ZM11.1111 41.865C9.46737 41.865 8.13489 40.5326 8.13489 38.8889H6.15076C6.15076 41.6284 8.37157 43.8492 11.1111 43.8492V41.865ZM41.865 38.8889C41.865 40.5326 40.5326 41.865 38.8889 41.865V43.8492C41.6284 43.8492 43.8492 41.6284 43.8492 38.8889H41.865ZM38.8889 8.13489C40.5326 8.13489 41.865 9.46737 41.865 11.1111H43.8492C43.8492 8.37157 41.6284 6.15076 38.8889 6.15076V8.13489ZM11.1111 6.15076C8.37157 6.15076 6.15076 8.37157 6.15076 11.1111H8.13489C8.13489 9.46737 9.46737 8.13489 11.1111 8.13489V6.15076Z" fill="black"/>
<path d="M23.4085 37.2162V35.0496C22.5487 35.0152 21.6717 34.9464 20.7775 34.8432C19.9005 34.74 19.1353 34.6025 18.4819 34.4305V31.4127C19.2385 31.4814 20.1499 31.5416 21.216 31.5932C22.2994 31.6276 23.3225 31.6448 24.2855 31.6448C25.2656 31.6448 26.0394 31.5158 26.6069 31.2579C27.1744 30.9828 27.4581 30.4669 27.4581 29.7103V29.0138C27.4581 28.4464 27.2861 28.0165 26.9422 27.7242C26.5983 27.4146 26.1254 27.2599 25.5236 27.2599H23.8986C22.0758 27.2599 20.6744 26.8644 19.6942 26.0734C18.7312 25.2652 18.2498 23.8981 18.2498 21.9722V21.0436C18.2498 19.3412 18.6968 18.0601 19.591 17.2004C20.5024 16.3234 21.8093 15.8247 23.5117 15.7043L23.4085 14.2857L25.4462 13.6666L25.5752 15.6785L25.472 15.7043C26.349 15.7559 27.2002 15.8419 28.0255 15.9623C28.8681 16.0826 29.5904 16.203 30.1922 16.3234V19.3412C29.4012 19.2896 28.5156 19.2381 27.5355 19.1865C26.5725 19.1349 25.6783 19.1091 24.8529 19.1091C23.9588 19.1091 23.2365 19.2467 22.6863 19.5218C22.1532 19.7969 21.8867 20.3644 21.8867 21.2242V21.74C21.8867 22.4107 22.0758 22.8922 22.4541 23.1845C22.8324 23.4768 23.3913 23.623 24.1307 23.623H26.0136C27.716 23.623 28.9885 24.0873 29.8311 25.0158C30.6737 25.9444 31.095 27.1137 31.095 28.5238V29.6071C31.095 30.9656 30.8629 32.0317 30.3986 32.8055C29.9515 33.5621 29.3152 34.1124 28.4898 34.4563C27.6644 34.783 26.6929 34.9808 25.5752 35.0496V37.2162H23.4085Z" fill="black"/>
</svg>
