<svg width="20" height="20" viewBox="0 0 50 50" fill="none" xmlns="http://www.w3.org/2000/svg">
<path d="M11.1111 8.13489H38.8889V6.15076H11.1111V8.13489ZM41.865 11.1111V38.8889H43.8492V11.1111H41.865ZM38.8889 41.865H11.1111V43.8492H38.8889V41.865ZM8.13489 38.8889V11.1111H6.15076V38.8889H8.13489ZM11.1111 41.865C9.46737 41.865 8.13489 40.5326 8.13489 38.8889H6.15076C6.15076 41.6284 8.37157 43.8492 11.1111 43.8492V41.865ZM41.865 38.8889C41.865 40.5326 40.5326 41.865 38.8889 41.865V43.8492C41.6284 43.8492 43.8492 41.6284 43.8492 38.8889H41.865ZM38.8889 8.13489C40.5326 8.13489 41.865 9.46737 41.865 11.1111H43.8492C43.8492 8.37157 41.6284 6.15076 38.8889 6.15076V8.13489ZM11.1111 6.15076C8.37157 6.15076 6.15076 8.37157 6.15076 11.1111H8.13489C8.13489 9.46737 9.46737 8.13489 11.1111 8.13489V6.15076Z" fill="black"/>
<path d="M14 29.9778H19.0556L22.1667 22.1667L24.8889 34.5L28 16L29.5556 29.9778H35" stroke="black" stroke-width="1.5"/>
</svg>
